<svg width="12" height="12" viewBox="0 0 12 12" fill="none" xmlns="http://www.w3.org/2000/svg">
<path fill-rule="evenodd" clip-rule="evenodd" d="M6 12C9.31371 12 12 9.31365 12 6C12 2.68635 9.31371 0 6 0C2.68629 0 0 2.68635 0 6C0 9.31365 2.68629 12 6 12ZM8.65813 3.34191C8.87868 3.56233 8.87868 3.91992 8.65813 4.14051L6.79862 6L8.65813 7.85949C8.87866 8.08008 8.87866 8.43767 8.65813 8.65809C8.43761 8.87868 8.08006 8.87868 7.85951 8.65809L6 6.7986L4.14049 8.65809C3.91997 8.87868 3.56241 8.87868 3.34187 8.65809C3.12135 8.43767 3.12135 8.08008 3.34187 7.85949L5.20138 6L3.34187 4.14051C3.12135 3.91992 3.12135 3.56233 3.34187 3.34191C3.56239 3.12132 3.91994 3.12132 4.14049 3.34191L6 5.2014L7.85951 3.34191C8.08006 3.12132 8.43761 3.12132 8.65813 3.34191Z" fill="#2C2D2F"/>
</svg>
