<svg xmlns="http://www.w3.org/2000/svg" xmlns:xlink="http://www.w3.org/1999/xlink" version="1.1" width="0" height="0" viewBox="0 0 256 256" xml:space="preserve">

<defs>
</defs>
<g style="stroke: none; stroke-width: 0; stroke-dasharray: none; stroke-linecap: butt; stroke-linejoin: miter; stroke-miterlimit: 10; fill: none; fill-rule: nonzero; opacity: 1;" transform="translate(1.4065934065934016 1.4065934065934016) scale(2.81 2.81)" >
	<path d="M 71.858 55.235 l 6.544 0 c 5.577 0 10.098 -4.521 10.098 -10.098 v 0 c 0 -3.775 -2.075 -7.06 -5.143 -8.793 c 0.06 -0.564 0.094 -1.137 0.094 -1.717 c 0 -1.112 -0.113 -2.197 -0.327 -3.245 c -1.501 -7.337 -7.993 -12.857 -15.775 -12.857 c -6.299 0 -11.739 3.626 -14.384 8.896 c -2.509 -2.451 -5.937 -3.967 -9.722 -3.967 c -5.393 0 -10.062 3.069 -12.368 7.556 C 37.922 48.524 51.159 57.204 71.858 55.235 z" style="stroke: none; stroke-width: 1; stroke-dasharray: none; stroke-linecap: butt; stroke-linejoin: miter; stroke-miterlimit: 10; fill: rgb(98,195,247); fill-rule: nonzero; opacity: 1;" transform=" matrix(1 0 0 1 0 0) " stroke-linecap="round" />
	<path d="M 68.114 50.801 c -0.297 -8.396 -7.179 -15.116 -15.648 -15.116 c -4.263 0 -8.122 1.707 -10.948 4.467 c -2.98 -5.935 -9.105 -10.018 -16.199 -10.018 c -10.015 0 -18.133 8.118 -18.133 18.133 c 0 0.654 0.038 1.298 0.106 1.934 C 3.837 52.152 1.5 55.852 1.5 60.103 v 0 c 0 6.28 5.091 11.372 11.372 11.372 h 48.713 c 6.28 0 11.372 -5.091 11.372 -11.372 v 0 C 72.956 56.255 71.04 52.859 68.114 50.801 z" style="stroke: none; stroke-width: 1; stroke-dasharray: none; stroke-linecap: butt; stroke-linejoin: miter; stroke-miterlimit: 10; fill: rgb(88,155,211); fill-rule: nonzero; opacity: 1;" transform=" matrix(1 0 0 1 0 0) " stroke-linecap="round" />
	<path d="M 84.925 35.554 c 0.018 -0.314 0.026 -0.625 0.026 -0.927 c 0 -1.195 -0.12 -2.388 -0.357 -3.546 c -1.666 -8.145 -8.918 -14.056 -17.244 -14.056 c -6.052 0 -11.561 3.049 -14.784 8.071 c -2.672 -2.038 -5.919 -3.143 -9.322 -3.143 c -5.378 0 -10.281 2.763 -13.082 7.284 c -1.558 -0.394 -3.181 -0.603 -4.842 -0.603 c -10.826 0 -19.633 8.808 -19.633 19.633 c 0 0.372 0.012 0.753 0.035 1.141 C 2.169 51.786 0 55.8 0 60.104 C 0 67.2 5.774 72.975 12.872 72.975 h 48.713 c 7.097 0 12.871 -5.774 12.871 -12.871 c 0 -1.153 -0.173 -2.281 -0.471 -3.369 h 4.417 C 84.797 56.734 90 51.531 90 45.137 C 90 41.292 88.078 37.704 84.925 35.554 z M 61.585 69.975 H 12.872 C 7.428 69.975 3 65.547 3 60.104 c 0 -3.551 1.927 -6.845 5.029 -8.597 c 0.521 -0.294 0.817 -0.869 0.754 -1.464 c -0.065 -0.611 -0.098 -1.208 -0.098 -1.775 c 0 -9.171 7.461 -16.633 16.633 -16.633 c 6.319 0 12.013 3.522 14.858 9.191 c 0.215 0.428 0.621 0.728 1.093 0.807 c 0.472 0.077 0.953 -0.072 1.296 -0.407 c 2.667 -2.605 6.183 -4.041 9.899 -4.041 c 7.663 0 13.877 6.004 14.148 13.669 c 0.017 0.47 0.252 0.904 0.637 1.175 c 2.633 1.85 4.205 4.868 4.205 8.074 C 71.456 65.547 67.028 69.975 61.585 69.975 z M 78.402 53.734 H 72.74 c -0.808 -1.411 -1.867 -2.683 -3.169 -3.715 c -0.685 -8.938 -8.063 -15.834 -17.105 -15.834 c -3.859 0 -7.54 1.276 -10.546 3.626 c -2.145 -3.418 -5.234 -6.026 -8.83 -7.575 c 2.304 -3.295 6.059 -5.283 10.154 -5.283 c 3.257 0 6.337 1.257 8.674 3.54 c 0.342 0.334 0.817 0.484 1.296 0.407 c 0.472 -0.079 0.878 -0.379 1.093 -0.807 c 2.498 -4.977 7.496 -8.069 13.044 -8.069 c 6.907 0 12.923 4.902 14.305 11.658 c 0.197 0.96 0.297 1.951 0.297 2.944 c 0 0.505 -0.028 1.015 -0.086 1.56 c -0.063 0.594 0.234 1.169 0.755 1.463 c 2.701 1.526 4.38 4.395 4.38 7.486 C 87 49.878 83.144 53.734 78.402 53.734 z" style="stroke: none; stroke-width: 1; stroke-dasharray: none; stroke-linecap: butt; stroke-linejoin: miter; stroke-miterlimit: 10; fill: rgb(0,0,0); fill-rule: nonzero; opacity: 1;" transform=" matrix(1 0 0 1 0 0) " stroke-linecap="round" />
</g>
</svg>
