<svg xmlns="http://www.w3.org/2000/svg" xmlns:xlink="http://www.w3.org/1999/xlink" version="1.1" width="0" height="0" viewBox="0 0 256 256" xml:space="preserve">

<defs>
</defs>
<g style="stroke: none; stroke-width: 0; stroke-dasharray: none; stroke-linecap: butt; stroke-linejoin: miter; stroke-miterlimit: 10; fill: none; fill-rule: nonzero; opacity: 1;" transform="translate(1.4065934065934016 1.4065934065934016) scale(2.81 2.81)" >
	<path d="M 7.374 32.745 c -0.023 -0.345 -0.039 -0.692 -0.039 -1.043 c 0 -8.552 6.933 -15.484 15.484 -15.484 c 6.187 0 11.524 3.629 14.004 8.874 c 1.868 -1.326 4.145 -2.113 6.61 -2.113 c 5.704 0 10.419 4.178 11.285 9.638 c 3.927 1.075 6.817 4.659 6.817 8.927 c 0 5.117 -4.148 9.265 -9.265 9.265 H 10.264 C 5.148 50.808 1 46.66 1 41.544 C 1 37.437 3.674 33.961 7.374 32.745 z" style="stroke: none; stroke-width: 1; stroke-dasharray: none; stroke-linecap: butt; stroke-linejoin: miter; stroke-miterlimit: 10; fill: rgb(80,85,89); fill-rule: nonzero; opacity: 1;" transform=" matrix(1 0 0 1 0 0) " stroke-linecap="round" />
	<path d="M 52.271 51.809 H 10.265 C 4.604 51.809 0 47.204 0 41.544 c 0 -4.186 2.518 -7.905 6.34 -9.481 c -0.003 -0.12 -0.005 -0.24 -0.005 -0.36 c 0 -9.089 7.395 -16.484 16.484 -16.484 c 5.963 0 11.492 3.277 14.388 8.438 c 1.893 -1.101 4.023 -1.678 6.227 -1.678 c 5.936 0 10.953 4.11 12.158 9.86 c 4.12 1.408 6.944 5.311 6.944 9.705 C 62.535 47.204 57.931 51.809 52.271 51.809 z M 22.819 17.218 c -7.986 0 -14.484 6.498 -14.484 14.484 c 0 0.328 0.015 0.653 0.036 0.977 c 0.031 0.456 -0.252 0.874 -0.686 1.017 C 4.285 34.813 2 37.966 2 41.544 c 0 4.558 3.708 8.265 8.265 8.265 h 42.007 c 4.557 0 8.264 -3.707 8.264 -8.265 c 0 -3.708 -2.501 -6.983 -6.081 -7.963 c -0.379 -0.104 -0.662 -0.419 -0.724 -0.808 c -0.809 -5.096 -5.14 -8.794 -10.297 -8.794 c -2.168 0 -4.254 0.667 -6.032 1.929 c -0.24 0.171 -0.545 0.227 -0.832 0.152 c -0.286 -0.075 -0.524 -0.272 -0.651 -0.54 C 33.534 20.477 28.392 17.218 22.819 17.218 z" style="stroke: none; stroke-width: 1; stroke-dasharray: none; stroke-linecap: butt; stroke-linejoin: miter; stroke-miterlimit: 10; fill: rgb(0,0,0); fill-rule: nonzero; opacity: 1;" transform=" matrix(1 0 0 1 0 0) " stroke-linecap="round" />
	<path d="M 82.796 37.411 c -6.871 3.525 -15.298 0.812 -18.822 -6.058 s -0.812 -15.298 6.058 -18.822 c 0.654 -0.335 1.325 -0.597 2.001 -0.821 c -3.232 -0.234 -6.568 0.387 -9.662 1.974 c -8.995 4.615 -12.546 15.647 -7.931 24.642 s 15.647 12.546 24.642 7.931 c 5.981 -3.068 9.551 -8.974 9.918 -15.232 C 87.725 33.681 85.619 35.963 82.796 37.411 z" style="stroke: none; stroke-width: 1; stroke-dasharray: none; stroke-linecap: butt; stroke-linejoin: miter; stroke-miterlimit: 10; fill: rgb(252,252,252); fill-rule: nonzero; opacity: 1;" transform=" matrix(1 0 0 1 0 0) " stroke-linecap="round" />
	<path d="M 70.759 49.273 c -7.016 0 -13.792 -3.832 -17.209 -10.491 c -4.858 -9.472 -1.106 -21.13 8.365 -25.989 c 3.151 -1.617 6.678 -2.333 10.19 -2.082 c 0.476 0.035 0.861 0.4 0.92 0.874 s -0.225 0.923 -0.678 1.073 c -0.711 0.235 -1.319 0.485 -1.86 0.762 c -3.085 1.583 -5.369 4.272 -6.432 7.573 s -0.775 6.818 0.808 9.903 c 1.583 3.085 4.272 5.37 7.573 6.432 c 3.299 1.062 6.817 0.775 9.903 -0.807 c 2.528 -1.298 4.52 -3.348 5.759 -5.929 c 0.206 -0.431 0.69 -0.654 1.151 -0.536 c 0.463 0.12 0.776 0.55 0.748 1.027 c -0.399 6.802 -4.407 12.958 -10.459 16.063 C 76.727 48.59 73.721 49.273 70.759 49.273 z M 67.425 12.98 c -1.59 0.31 -3.138 0.844 -4.598 1.593 c -8.489 4.355 -11.854 14.806 -7.498 23.296 c 4.356 8.49 14.805 11.855 23.297 7.499 c 4.058 -2.083 7.09 -5.694 8.511 -9.935 c -1.118 1.151 -2.424 2.118 -3.884 2.867 c -0.001 0 -0.001 0 -0.001 0 c -3.561 1.827 -7.621 2.156 -11.429 0.932 c -3.81 -1.226 -6.913 -3.862 -8.739 -7.423 c -1.827 -3.561 -2.158 -7.619 -0.932 -11.429 C 63.116 17.385 64.953 14.825 67.425 12.98 z M 82.796 37.411 h 0.01 H 82.796 z" style="stroke: none; stroke-width: 1; stroke-dasharray: none; stroke-linecap: butt; stroke-linejoin: miter; stroke-miterlimit: 10; fill: rgb(0,0,0); fill-rule: nonzero; opacity: 1;" transform=" matrix(1 0 0 1 0 0) " stroke-linecap="round" />
	<path d="M 14.78 55.164 c -0.029 -0.443 -0.05 -0.888 -0.05 -1.338 c 0 -10.972 8.894 -19.866 19.866 -19.866 c 7.937 0 14.785 4.656 17.966 11.385 c 2.396 -1.701 5.318 -2.711 8.48 -2.711 c 7.318 0 13.367 5.36 14.479 12.365 c 5.038 1.379 8.746 5.977 8.746 11.453 c 0 6.565 -5.322 11.886 -11.886 11.886 H 18.489 c -6.565 0 -11.886 -5.322 -11.886 -11.886 C 6.603 61.184 10.033 56.723 14.78 55.164 z" style="stroke: none; stroke-width: 1; stroke-dasharray: none; stroke-linecap: butt; stroke-linejoin: miter; stroke-miterlimit: 10; fill: rgb(98,104,108); fill-rule: nonzero; opacity: 1;" transform=" matrix(1 0 0 1 0 0) " stroke-linecap="round" />
	<path d="M 72.382 79.338 H 18.489 c -7.105 0 -12.886 -5.78 -12.886 -12.886 c 0 -5.319 3.24 -10.039 8.14 -11.976 c -0.008 -0.216 -0.012 -0.433 -0.012 -0.65 c 0 -11.505 9.36 -20.866 20.866 -20.866 c 7.646 0 14.727 4.257 18.352 10.936 c 2.446 -1.483 5.222 -2.262 8.095 -2.262 c 7.534 0 13.894 5.255 15.354 12.584 c 5.254 1.722 8.871 6.664 8.871 12.233 C 85.269 73.558 79.487 79.338 72.382 79.338 z M 34.596 34.96 c -10.403 0 -18.866 8.463 -18.866 18.866 c 0 0.428 0.02 0.852 0.048 1.271 c 0.03 0.456 -0.252 0.874 -0.686 1.017 c -4.479 1.472 -7.489 5.626 -7.489 10.338 c 0 6.002 4.884 10.886 10.886 10.886 h 53.893 c 6.003 0 10.887 -4.884 10.887 -10.886 c 0 -4.885 -3.294 -9.198 -8.011 -10.488 c -0.379 -0.104 -0.662 -0.42 -0.724 -0.808 c -1.061 -6.677 -6.734 -11.522 -13.491 -11.522 c -2.841 0 -5.573 0.874 -7.901 2.527 c -0.241 0.172 -0.549 0.228 -0.832 0.151 c -0.286 -0.075 -0.524 -0.272 -0.651 -0.54 C 48.553 39.205 41.855 34.96 34.596 34.96 z" style="stroke: none; stroke-width: 1; stroke-dasharray: none; stroke-linecap: butt; stroke-linejoin: miter; stroke-miterlimit: 10; fill: rgb(0,0,0); fill-rule: nonzero; opacity: 1;" transform=" matrix(1 0 0 1 0 0) " stroke-linecap="round" />
</g>
</svg>
